# Blender v2.83.0 OBJ File: 'BakingScene.blend'
# www.blender.org
mtllib BakingScene.mtl
o Cube
v 1.000000 2.687159 -1.000000
v 1.000000 0.687159 -1.000000
v 1.000000 2.687159 1.000000
v 1.000000 0.687159 1.000000
v -1.000000 2.687159 -1.000000
v -1.000000 0.687159 -1.000000
v -1.000000 2.687159 1.000000
v -1.000000 0.687159 1.000000
vt 0.450844 0.082966
vt 0.608441 0.240562
vt 0.608441 0.082966
vt 0.133747 0.082966
vt 0.291343 0.240562
vt 0.291343 0.082966
vt 0.133747 0.241514
vt 0.291343 0.399111
vt 0.291343 0.241514
vt 0.292296 0.082966
vt 0.449892 0.240562
vt 0.449892 0.082966
vt 0.292296 0.241514
vt 0.449892 0.399111
vt 0.449892 0.241514
vt 0.133747 0.400063
vt 0.291343 0.557659
vt 0.291343 0.400063
vt 0.450844 0.240562
vt 0.133747 0.240562
vt 0.133747 0.399111
vt 0.292296 0.240562
vt 0.292296 0.399111
vt 0.133747 0.557659
vn 0.0000 1.0000 0.0000
vn 0.0000 0.0000 1.0000
vn -1.0000 0.0000 0.0000
vn 0.0000 -1.0000 0.0000
vn 1.0000 0.0000 0.0000
vn 0.0000 0.0000 -1.0000
usemtl Material
s off
f 5/1/1 3/2/1 1/3/1
f 3/4/2 8/5/2 4/6/2
f 7/7/3 6/8/3 8/9/3
f 2/10/4 8/11/4 6/12/4
f 1/13/5 4/14/5 2/15/5
f 5/16/6 2/17/6 6/18/6
f 5/1/1 7/19/1 3/2/1
f 3/4/2 7/20/2 8/5/2
f 7/7/3 5/21/3 6/8/3
f 2/10/4 4/22/4 8/11/4
f 1/13/5 3/23/5 4/14/5
f 5/16/6 1/24/6 2/17/6
o Plane_Plane.001
v -10.000000 0.000000 10.000000
v 10.000000 0.000000 10.000000
v -10.000000 0.000000 -10.000000
v 10.000000 0.000000 -10.000000
vt 0.960789 0.547023
vt 0.539211 0.968602
vt 0.539211 0.547023
vt 0.960789 0.968602
vn 0.0000 1.0000 0.0000
usemtl Material
s 1
f 10/25/7 11/26/7 9/27/7
f 10/25/7 12/28/7 11/26/7
